<?xml version="1.0" standalone="no"?>
<!DOCTYPE svg PUBLIC "-//W3C//DTD SVG 20010904//EN"
 "http://www.w3.org/TR/2001/REC-SVG-20010904/DTD/svg10.dtd">
<svg version="1.0" xmlns="http://www.w3.org/2000/svg"
 width="192.000000pt" height="192.000000pt" viewBox="0 0 192.000000 192.000000"
 preserveAspectRatio="xMidYMid meet">

<g transform="translate(0.000000,192.000000) scale(0.100000,-0.100000)"
fill="#000000" stroke="none">
<path d="M158 1760 c-46 -14 -85 -48 -108 -94 -20 -43 -21 -53 -18 -448 l3
-404 27 -41 c16 -25 44 -49 72 -63 l46 -22 0 -143 c0 -203 -1 -203 215 14 154
155 169 161 178 71 6 -71 34 -120 85 -152 37 -23 42 -23 387 -26 l350 -3 151
-149 c83 -83 156 -150 161 -150 27 0 33 29 33 166 l0 141 29 6 c39 8 99 71
111 119 7 24 10 181 8 431 -3 389 -3 392 -26 429 -13 20 -40 47 -60 60 -35 22
-48 23 -243 26 l-206 3 -6 60 c-7 77 -40 129 -99 158 -43 21 -54 21 -554 20
-280 0 -521 -4 -536 -9z m1093 -89 l39 -39 0 -397 c0 -386 -1 -398 -21 -426
-41 -58 -46 -59 -426 -59 l-348 0 -127 -127 -128 -128 0 122 0 121 -50 17
c-29 9 -60 29 -75 46 l-25 31 0 398 0 398 27 32 c14 18 36 36 47 40 12 5 252
9 535 9 l513 1 39 -39z m541 -241 l38 -41 0 -393 c0 -392 0 -393 -23 -427 -16
-24 -37 -39 -72 -51 l-50 -16 -5 -121 -5 -121 -125 125 -125 125 -357 0 -358
0 -37 33 c-31 29 -37 41 -41 90 l-4 56 299 3 c298 3 300 3 335 27 19 13 46 40
59 59 24 35 24 36 27 364 l3 328 201 0 201 0 39 -40z"/>
</g>
</svg>
